<svg width="600" height="600" viewBox="0 0 600 600" fill="none" xmlns="http://www.w3.org/2000/svg">
<path fill-rule="evenodd" clip-rule="evenodd" d="M222.25 92.7639C222.138 92.82 222.023 92.8776 221.904 92.9367C244.097 92.9943 266.289 93.0135 288.481 92.9943C294.635 93.7917 298.686 97.1314 300.633 103.013C300.825 103.812 300.978 104.618 301.094 105.432C302.597 136.799 304.171 168.161 305.817 199.52C315.872 189.117 320.921 176.642 320.964 162.092C319.682 161.444 318.51 160.638 317.451 159.674C315.676 156.469 313.871 153.282 312.037 150.115C311.418 149.11 310.689 148.189 309.848 147.351C309.573 146.857 309.631 146.415 310.021 146.027C310.52 145.95 311.02 145.95 311.518 146.027C314.616 147.204 317.016 149.219 318.718 152.073C318.968 152.323 319.216 152.572 319.466 152.822C320.251 153.192 320.731 152.944 320.906 152.073C321.186 150.744 321.263 149.4 321.136 148.042C320.831 146.075 320.658 144.099 320.618 142.111C320.338 138.388 321.452 135.164 323.958 132.438C325.598 130.966 327.517 130.275 329.718 130.365C331.075 130.611 332.169 131.283 333.001 132.38C334.693 134.805 335.729 137.493 336.111 140.441C336.891 147.463 336.2 154.335 334.037 161.056C333.776 161.993 333.814 162.914 334.152 163.82C341.535 180.53 342.764 197.689 337.838 215.298C332.791 232.273 323.038 245.824 308.581 255.95C309.802 280.631 311.012 305.314 312.21 330C312.172 330.542 312.211 331.08 312.325 331.612C312.395 331.598 312.433 331.559 312.44 331.497C315.767 325.389 319.701 319.708 324.246 314.453C327.667 310.764 331.047 307.04 334.383 303.282C334.867 302.76 335.385 302.28 335.938 301.843C337.759 301.266 339.045 301.86 339.796 303.628C339.901 304.266 339.825 304.879 339.566 305.47C336.496 312.949 333.541 320.473 330.697 328.042C325.055 346.613 325.977 364.847 333.461 382.745C335.644 387.185 337.507 391.754 339.048 396.449C341.506 383.029 345.057 369.901 349.702 357.063C349.905 356.416 350.173 355.802 350.509 355.221C351.959 353.811 353.379 353.85 354.771 355.336C354.886 355.566 355.001 355.797 355.116 356.027C355.601 359.078 356.177 362.11 356.844 365.125C358.508 371.744 360.083 378.386 361.566 385.048C362.798 390.826 363.642 396.661 364.101 402.553C365.158 415.772 362.93 428.401 357.42 440.441C354.946 445.313 352.354 450.112 349.645 454.837C349.583 454.844 349.543 454.882 349.53 454.952C351.794 455.067 354.059 455.105 356.326 455.067C356.478 455.048 356.612 455.086 356.729 455.182C356.806 465.164 356.806 475.144 356.729 485.125C355.291 495.886 349.667 503.544 339.854 508.1C334.581 510.107 329.129 510.798 323.498 510.173C312.896 508.707 305.313 503.159 300.749 493.532C299.939 491.598 299.343 489.601 298.963 487.543C243.482 487.313 187.963 487.236 132.405 487.313C126.375 486.83 122.209 483.797 119.908 478.215C119.623 477.345 119.393 476.462 119.217 475.566C116.614 424.013 114.041 372.46 111.499 320.902C107.531 318.432 104.191 315.284 101.478 311.459C102.572 336.105 103.723 360.75 104.934 385.393C106.668 418.408 108.434 451.422 110.232 484.434C111.176 490.14 114.343 494.037 119.735 496.123C120.599 496.403 121.482 496.595 122.384 496.699C159.973 496.737 197.562 496.776 235.151 496.814C235.609 497.165 235.609 497.511 235.151 497.85C193.338 497.956 151.526 497.918 109.714 497.735C103.42 496.702 99.2928 493.15 97.3315 487.083C97.1189 486.327 96.9652 485.559 96.8708 484.779C96.6861 481.055 96.4941 477.332 96.2948 473.608C90.34 348.388 84.3887 223.167 78.4411 97.9463C77.7322 92.6639 79.2487 88.1533 82.9909 84.4146C85.3159 82.3122 88.042 81.0454 91.1691 80.6142C127.51 80.4849 163.851 80.4273 200.192 80.4415C232.581 80.4226 264.968 80.4802 297.351 80.6142C304.529 82.3396 308.656 86.8502 309.733 94.1459C310.329 106.503 310.789 118.863 311.115 131.228C310.773 131.547 310.467 131.508 310.194 131.113C309.64 118.946 309.14 106.778 308.696 94.6066C308.073 88.9938 305.212 84.9824 300.115 82.572C298.846 82.0909 297.54 81.7454 296.199 81.5355C274.852 81.4396 253.503 81.4587 232.156 81.5931C230.601 84.3196 228.931 86.9684 227.145 89.5394C225.77 91.012 224.138 92.0868 222.25 92.7639Z" fill="#020202"/>
<path fill-rule="evenodd" clip-rule="evenodd" d="M178.249 92.764C156.671 92.8409 135.093 92.9176 113.515 92.9944C108.691 93.5014 105.063 95.843 102.63 100.019C101.684 101.705 101.108 103.509 100.902 105.432C100.902 107.813 100.979 110.193 101.133 112.572C103.417 157.791 105.663 203.011 107.871 248.234C107.852 248.618 107.833 249.002 107.813 249.386C104.238 254.346 101.416 259.721 99.3472 265.509C99.2704 265.24 99.1936 264.971 99.1168 264.703C98.6212 252.645 98.0452 240.591 97.389 228.541C97.4003 228.297 97.4963 228.105 97.677 227.966C97.6962 227.543 97.7154 227.121 97.7346 226.699C95.7608 183.628 93.7834 140.557 91.8025 97.4857C91.2736 91.9235 93.2126 87.4512 97.6194 84.0692C99.6833 82.5879 101.987 81.7433 104.531 81.5356C125.763 81.4588 146.996 81.4588 168.228 81.5356C169.827 84.1758 171.497 86.7669 173.239 89.3091C174.617 90.9017 176.287 92.0534 178.249 92.764Z" fill="#FEFEFE"/>
<path fill-rule="evenodd" clip-rule="evenodd" d="M391.112 81.8235C401.437 81.3959 411.496 82.797 421.29 86.027C426.733 87.8631 431.646 90.5886 436.034 94.2036C441.373 98.8142 444.214 104.649 444.558 111.708C458.397 114.449 469.358 121.57 477.443 133.071C486.482 146.473 488.823 160.983 484.469 176.603C482.679 182.83 479.992 188.626 476.406 193.992C476.027 194.316 475.682 194.278 475.37 193.877C474.847 189.073 473.119 184.772 470.186 180.979C466.944 177.571 463.008 176.362 458.38 177.351C455.067 178.186 451.803 179.185 448.589 180.346C435.27 184.668 422.753 183.016 411.039 175.394C403.69 170.128 399.274 163.008 397.792 154.031C384.419 153.592 373.265 148.448 364.331 138.599C362.296 136.258 360.262 133.915 358.226 131.574C356.689 129.844 354.98 128.328 353.101 127.025C350.151 125.323 347.271 125.438 344.462 127.371C342.495 128.944 340.863 130.806 339.566 132.956C338.959 134.055 338.383 135.168 337.838 136.296C337.16 136.578 336.814 136.348 336.802 135.605C336.169 128.319 336.899 121.179 338.99 114.184C342.23 104.609 348.125 97.1421 356.671 91.7851C364.881 86.861 373.75 83.7899 383.279 82.5721C385.902 82.2622 388.513 82.0127 391.112 81.8235Z" fill="#080808"/>
<path fill-rule="evenodd" clip-rule="evenodd" d="M443.29 110.614C443.29 110.921 443.29 111.228 443.29 111.536C443.175 111.536 443.06 111.536 442.945 111.536C434.508 110.606 426.367 111.739 418.526 114.933C407.771 119.864 400.994 128.098 398.195 139.635C397.297 144.015 397.086 148.43 397.562 152.879C384.258 152.398 373.258 147.177 364.561 137.217C361.911 134.089 359.165 131.037 356.326 128.061C350.702 123.294 345.501 123.736 340.718 129.386C339.643 130.765 338.684 132.225 337.838 133.762C336.734 110.889 346.85 95.4381 368.19 87.4088C382.841 82.4789 397.739 81.5961 412.882 84.7601C420.082 86.2306 426.725 88.9945 432.809 93.0518C436.833 95.847 439.848 99.4746 441.851 103.935C442.644 106.097 443.125 108.323 443.29 110.614Z" fill="#FEFEFE"/>
<path fill-rule="evenodd" clip-rule="evenodd" d="M178.249 92.7639C178.394 92.7594 178.51 92.817 178.595 92.9367C156.902 92.9942 135.208 93.0135 113.515 92.9942C135.093 92.9174 156.672 92.8407 178.249 92.7639Z" fill="#3F3F3F"/>
<path fill-rule="evenodd" clip-rule="evenodd" d="M222.25 92.7639C244.327 92.8407 266.404 92.9174 288.481 92.9942C266.289 93.0135 244.097 92.9942 221.904 92.9367C222.023 92.8776 222.138 92.82 222.25 92.7639Z" fill="#3F3F3F"/>
<path fill-rule="evenodd" clip-rule="evenodd" d="M113.4 94.0307C171.837 94.0114 230.275 94.0307 288.712 94.0882C294.908 95.1769 298.651 98.8045 299.942 104.971C301.563 136.833 303.137 168.694 304.665 200.557C298.799 206.236 292.079 210.651 284.508 213.8C269.476 192.448 249.108 179.089 223.402 173.724C223.586 173.367 223.836 173.059 224.151 172.802C224.228 172.572 224.228 172.342 224.151 172.111C222.495 168.398 220.825 164.694 219.14 160.998C220.651 160.657 222.149 160.274 223.632 159.846C225.822 158.771 227.53 157.177 228.758 155.067C230.295 152.683 231.12 150.072 231.234 147.236C231.19 143.517 229.539 140.773 226.281 139.002C223.115 137.387 219.813 137.003 216.376 137.85C215.037 138.539 213.655 139.115 212.229 139.578C210.575 139.946 208.924 139.946 207.276 139.578C205.613 138.861 203.923 138.208 202.208 137.62C197.917 136.818 193.808 137.356 189.883 139.232C187.472 140.539 186.109 142.555 185.794 145.278C185.781 147.163 185.704 149.044 185.563 150.921C185.082 153.092 183.949 154.838 182.166 156.161C180.438 157.044 178.71 157.927 176.982 158.81C175.084 160.474 173.99 162.565 173.699 165.086C173.622 166.43 173.622 167.773 173.699 169.117C173.908 170.448 174.215 171.753 174.621 173.033C175.074 174.282 175.554 175.51 176.061 176.718C153.009 184.446 135.251 198.727 122.788 219.558C118.552 226.849 115.327 234.565 113.112 242.706C111.675 244.353 110.292 246.043 108.965 247.773C106.631 200.749 104.308 153.724 101.997 106.699C102.19 101.799 104.379 98.0948 108.562 95.5854C110.09 94.7496 111.703 94.2314 113.4 94.0307Z" fill="#FEFEFE"/>
<path fill-rule="evenodd" clip-rule="evenodd" d="M120.541 99.789C174.371 99.7697 228.202 99.789 282.031 99.8465C287.614 100.667 291.32 103.757 293.147 109.117C293.286 109.774 293.439 110.426 293.607 111.075C294.753 133.451 295.79 155.831 296.717 178.215C296.474 178.61 296.186 178.648 295.853 178.33C295.766 177.914 295.708 177.492 295.681 177.063C294.653 155.026 293.577 132.992 292.455 110.96C291.147 105.083 287.519 101.724 281.57 100.883C228.047 100.806 174.525 100.806 121.002 100.883C116.111 101.511 112.713 104.102 110.808 108.657C110.394 109.775 110.126 110.926 110.002 112.111C110.696 128.561 111.445 145.01 112.248 161.459C112.229 161.9 112.21 162.342 112.191 162.783C111.849 163.102 111.542 163.063 111.269 162.668C110.344 145.668 109.576 128.663 108.965 111.651C110.064 104.967 113.923 101.013 120.541 99.789Z" fill="#050505"/>
<path fill-rule="evenodd" clip-rule="evenodd" d="M367.153 110.269C384.929 110.249 402.707 110.269 420.484 110.326C420.878 110.594 420.916 110.901 420.599 111.248C402.745 111.344 384.891 111.324 367.038 111.19C366.867 110.851 366.906 110.544 367.153 110.269Z" fill="black"/>
<path fill-rule="evenodd" clip-rule="evenodd" d="M443.29 110.614C443.403 110.935 443.441 111.281 443.406 111.651C443.221 111.682 443.068 111.643 442.945 111.536C443.06 111.536 443.175 111.536 443.29 111.536C443.29 111.228 443.29 110.921 443.29 110.614Z" fill="#686868"/>
<path fill-rule="evenodd" clip-rule="evenodd" d="M434.997 112.342C447.863 112.003 459.074 116.091 468.631 124.607C482.164 137.329 487.482 152.895 484.584 171.305C483.117 178.799 480.334 185.747 476.233 192.15C475.606 188.668 474.396 185.406 472.605 182.361C469.282 177.298 464.617 175.245 458.61 176.2C455.33 176.982 452.104 177.941 448.935 179.079C436.245 183.469 424.189 182.163 412.766 175.163C404.403 169.597 399.661 161.785 398.541 151.728C397.545 140.043 401.211 130.119 409.541 121.958C415.455 116.93 422.289 113.898 430.044 112.86C431.711 112.676 433.362 112.503 434.997 112.342Z" fill="#FEFEFE"/>
<path fill-rule="evenodd" clip-rule="evenodd" d="M379.363 119.597C388.424 119.577 397.485 119.597 406.547 119.655C406.854 119.962 406.854 120.268 406.547 120.576C397.485 120.653 388.424 120.653 379.363 120.576C379.063 120.25 379.063 119.924 379.363 119.597Z" fill="black"/>
<path fill-rule="evenodd" clip-rule="evenodd" d="M327.99 131.459C329.727 131.224 331.129 131.8 332.194 133.186C334.3 136.305 335.336 139.76 335.304 143.551C335.52 149.407 334.751 155.126 333.001 160.71C332.84 161.627 332.802 162.548 332.885 163.474C340.188 179.742 341.608 196.518 337.147 213.8C335.866 218.412 334.177 222.864 332.079 227.159C330.667 227.119 329.266 226.908 327.875 226.526C321.838 224.834 316.501 221.916 311.864 217.774C307.767 214.003 304.349 209.722 301.613 204.933C304.407 202.503 307.038 199.893 309.503 197.102C318.07 186.781 322.236 174.881 322 161.401C320.544 160.76 319.258 159.878 318.142 158.752C316.52 155.778 314.869 152.823 313.189 149.885C312.606 148.918 311.933 148.016 311.173 147.179C311.825 147.273 312.439 147.503 313.016 147.87C315.113 149.161 316.784 150.87 318.026 152.994C318.541 153.627 319.194 154.011 319.985 154.146C320.91 154.106 321.525 153.645 321.828 152.764C322.31 151.303 322.463 149.805 322.288 148.273C321.977 146.189 321.767 144.097 321.655 141.996C321.537 139.108 322.286 136.479 323.901 134.108C325.016 132.817 326.379 131.933 327.99 131.459Z" fill="#FEFEFE"/>
<path fill-rule="evenodd" clip-rule="evenodd" d="M416.107 142.745C432.886 142.725 449.664 142.745 466.443 142.802C466.734 143.101 466.734 143.407 466.443 143.724C449.664 143.801 432.886 143.801 416.107 143.724C415.807 143.398 415.807 143.072 416.107 142.745Z" fill="black"/>
<path fill-rule="evenodd" clip-rule="evenodd" d="M432.002 149.194C438.107 149.174 444.212 149.194 450.317 149.251C450.568 149.53 450.606 149.836 450.432 150.173C444.289 150.25 438.145 150.25 432.002 150.173C431.703 149.847 431.703 149.521 432.002 149.194Z" fill="black"/>
<path fill-rule="evenodd" clip-rule="evenodd" d="M216.03 156.795C218.396 161.949 220.738 167.132 223.056 172.342C222.27 173.301 221.482 174.261 220.695 175.221C221.069 178.44 220.878 181.625 220.119 184.779C219.799 186.17 219.088 187.304 217.988 188.177C217.498 188.353 216.998 188.506 216.491 188.637C214.922 188.936 213.347 189.204 211.768 189.443C207.355 189.925 203.9 188.351 201.402 184.722C200.905 184.544 200.599 184.698 200.48 185.182C202.449 188.318 205.29 190.123 209.004 190.595C209.89 190.675 210.773 190.655 211.653 190.537C212.463 195.885 213.327 201.221 214.245 206.545C218.141 207.851 222.076 209.06 226.051 210.173C226.204 210.403 226.204 210.633 226.051 210.864C217.129 214.129 207.914 215.473 198.407 214.894C191.847 214.42 185.397 213.306 179.056 211.555C178.923 211.26 179.038 211.107 179.401 211.094C183.672 209.921 187.934 208.711 192.187 207.466C192.273 207.365 192.331 207.25 192.359 207.121C193.752 197.79 195.153 188.462 196.564 179.136C196.56 178.96 196.483 178.825 196.333 178.733C195.208 178.717 194.095 178.602 192.993 178.388C191.332 177.623 190.315 176.337 189.941 174.53C189.767 173.693 189.727 172.848 189.825 171.996C189.973 171.566 190.261 171.278 190.689 171.132C191.948 170.963 193.158 171.136 194.318 171.651C194.803 171.532 194.956 171.226 194.778 170.729C193.78 168.461 193.549 166.119 194.087 163.704C194.973 161.629 196.49 160.228 198.637 159.501C200.395 158.902 202.2 158.71 204.051 158.925C205.283 159.092 206.511 159.285 207.737 159.501C210.896 159.76 213.661 158.857 216.03 156.795Z" fill="#FEFEFE"/>
<path fill-rule="evenodd" clip-rule="evenodd" d="M112.018 174.76C112.348 174.708 112.636 174.785 112.882 174.99C113.514 186.734 114.052 198.48 114.494 210.23C114.243 210.641 113.936 210.679 113.573 210.345C112.932 198.736 112.337 187.124 111.787 175.509C111.769 175.221 111.846 174.971 112.018 174.76Z" fill="#0C0C0C"/>
<path fill-rule="evenodd" clip-rule="evenodd" d="M222.48 174.76C244.517 179.007 262.85 189.563 277.481 206.43C279.534 208.826 281.453 211.322 283.24 213.915C283.296 214.025 283.315 214.14 283.298 214.261C277.425 216.228 271.397 216.939 265.214 216.391C260.918 215.954 256.656 215.301 252.428 214.434C244.082 212.558 235.674 211.021 227.203 209.827C227.01 209.635 226.819 209.444 226.627 209.251C222.819 208.117 219.018 206.965 215.224 205.796C214.386 200.712 213.541 195.626 212.689 190.537C214.485 190.112 216.29 189.709 218.103 189.328C219.114 188.893 219.863 188.183 220.349 187.198C221.571 184.369 222.09 181.414 221.904 178.33C221.903 177.419 221.865 176.517 221.789 175.624C222 175.317 222.23 175.029 222.48 174.76Z" fill="#FEFEFE"/>
<path fill-rule="evenodd" clip-rule="evenodd" d="M176.406 177.639C176.624 177.616 176.797 177.692 176.924 177.87C179.012 181.3 181.911 183.776 185.621 185.298C188.547 186.298 191.464 186.279 194.375 185.24C194.413 185.336 194.452 185.432 194.49 185.528C193.445 192.572 192.409 199.616 191.38 206.66C187.989 207.54 184.611 208.481 181.244 209.482C172.317 210.724 163.678 213.028 155.327 216.392C150.848 218.267 146.355 220.109 141.851 221.919C131.702 226.617 122.698 232.933 114.84 240.864C120.028 223.631 129.3 209.025 142.657 197.044C152.563 188.328 163.812 181.859 176.406 177.639Z" fill="#FEFEFE"/>
<path fill-rule="evenodd" clip-rule="evenodd" d="M300.461 205.624C300.576 205.613 300.672 205.652 300.749 205.739C304.383 212.022 309.125 217.339 314.974 221.689C319.931 225.203 325.421 227.448 331.446 228.426C322.581 245.061 309.335 256.75 291.707 263.493C280.724 267.507 269.417 268.869 257.785 267.581C257.537 267.598 257.345 267.713 257.209 267.927C253.952 278.751 252.609 289.807 253.177 301.094C253.692 307.773 255.19 314.223 257.669 320.441C258.998 323.387 260.303 326.343 261.586 329.309C262.444 331.217 262.827 333.213 262.738 335.297C262.303 337.92 260.826 339.667 258.303 340.537C255.789 341.288 253.216 341.672 250.586 341.689C245.171 341.682 239.757 341.567 234.344 341.343C221.455 341.038 208.67 342.036 195.988 344.338C189.299 345.67 182.618 347.052 175.946 348.484C172.56 349.171 169.144 349.441 165.694 349.29C161.952 349.023 158.976 347.391 156.767 344.395C156.023 342.894 155.486 341.319 155.155 339.674C153.994 333.54 153.225 327.359 152.851 321.132C159.152 319.252 165.008 316.468 170.417 312.783C171.304 312.147 172.148 311.456 172.951 310.71C174.917 310.593 176.76 310.055 178.48 309.098C180.395 307.836 182.143 306.358 183.721 304.664C185.135 303.082 186.537 301.489 187.925 299.885C193.222 299.445 198.521 299.022 203.82 298.618C204.646 298.407 205.165 297.889 205.375 297.063C205.26 287.004 205.03 276.947 204.684 266.89C204.262 265.913 203.513 265.414 202.438 265.393C196.021 265.854 189.609 266.372 183.202 266.948C182.607 267.236 182.166 267.677 181.878 268.272C181.878 269.349 181.935 270.424 182.05 271.497C180.371 271.129 178.681 271.071 176.982 271.324C175.165 271.951 174.032 273.199 173.584 275.067C173.307 276.707 173.422 278.319 173.93 279.904C174.755 282.553 176.003 284.971 177.673 287.159C174.926 290.386 172.2 293.63 169.495 296.89C164.69 298.42 159.775 299.417 154.751 299.885C153.716 299.942 152.679 299.962 151.641 299.942C151.677 293.876 151.62 287.811 151.469 281.747C151.405 279.698 151.214 277.664 150.893 275.643C149.789 273.315 147.966 272.414 145.421 272.937C141.025 274.606 137.857 277.582 135.919 281.862C134.935 284.083 134.205 286.386 133.73 288.771C133.476 290.46 133.226 292.149 132.981 293.839C133.015 294.123 133.13 294.373 133.327 294.587C129.903 294.448 127.119 295.695 124.976 298.33C119.987 305.276 116.589 312.952 114.782 321.363C107.644 317.738 102.403 312.287 99.0594 305.009C96.2712 298.526 95.3113 291.769 96.1798 284.741C97.508 269.15 103.306 255.523 113.573 243.858C122.45 234.177 132.951 226.788 145.076 221.689C148.914 220.154 152.754 218.619 156.594 217.082C162.113 214.945 167.757 213.218 173.527 211.9C174.973 211.568 176.432 211.32 177.904 211.152C177.828 211.825 178.096 212.304 178.71 212.591C187.668 215.172 196.806 216.324 206.124 216.046C213.129 215.682 219.924 214.3 226.512 211.9C226.899 211.681 227.129 211.355 227.203 210.921C230.397 211.342 233.584 211.822 236.763 212.361C242.841 213.542 248.907 214.77 254.963 216.046C258.659 216.754 262.383 217.253 266.136 217.543C274.84 218.122 283.018 216.318 290.67 212.13C294.139 210.245 297.403 208.076 300.461 205.624Z" fill="#F08262"/>
<path fill-rule="evenodd" clip-rule="evenodd" d="M410.117 288.657C410.269 287.754 410.269 286.832 410.117 285.893C410.047 285.906 410.009 285.946 410.002 286.008C407.107 289.498 403.767 292.473 399.981 294.933C397.615 296.451 395.042 297.449 392.263 297.927C388.999 298.402 386.369 297.346 384.373 294.76C382.246 291.776 380.442 288.59 378.96 285.202C374.94 275.446 371.56 265.465 368.823 255.259C367.409 250.133 366.065 244.989 364.792 239.827C364.601 239.065 364.485 238.298 364.446 237.524C364.876 237.291 365.317 237.08 365.771 236.891C365.31 236.277 364.772 235.739 364.158 235.278C363.065 234.483 361.951 233.715 360.818 232.975C359.589 232.937 358.361 232.898 357.132 232.86C356.684 232.604 356.358 232.239 356.153 231.766C356.115 230.96 356.076 230.154 356.038 229.348C354.24 226.943 352.897 224.294 352.006 221.401C351.199 218.41 351.985 215.934 354.367 213.973C354.591 213.754 354.859 213.658 355.174 213.685C355.118 211.956 355.061 210.228 355.001 208.503C355.182 208.004 355.509 207.64 355.98 207.409C361.201 207.332 366.424 207.332 371.645 207.409C372.077 207.572 372.403 207.86 372.624 208.273C372.682 209.04 372.702 209.808 372.682 210.576C377.745 209.21 380.069 211.129 379.651 216.334C378.933 219.574 377.512 222.453 375.389 224.971C374.392 226.063 373.375 227.139 372.336 228.196C373.277 229.732 373.931 231.384 374.295 233.148C374.627 233.172 374.973 233.192 375.331 233.205C377.94 239.67 380.723 246.061 383.682 252.38C385.397 255.927 387.317 259.344 389.441 262.63C390.228 263.689 391.131 264.629 392.148 265.451C392.938 265.784 393.745 265.822 394.567 265.566C396.096 264.768 397.382 263.674 398.426 262.284C400.84 259.063 403.471 256.011 406.316 253.129C409.69 250.096 413.644 248.331 418.18 247.831C422.057 247.615 425.936 247.557 429.814 247.658C430.066 247.678 430.278 247.602 430.447 247.428C431.549 245.393 432.355 243.243 432.866 240.979C433.538 236.531 434.191 232.078 434.824 227.62C435.307 224.705 436.152 221.902 437.358 219.213C439.61 214.831 443.161 212.125 448.013 211.094C453.761 209.78 459.252 210.471 464.485 213.167C468.323 215.332 470.684 218.576 471.568 222.898C471.335 228.624 471.718 234.305 472.72 239.943C473.423 243.318 474.728 246.427 476.637 249.271C477.454 250.319 478.356 251.298 479.343 252.207C481.455 253.916 483.759 255.336 486.255 256.468C490.849 258.113 495.15 260.301 499.155 263.033C504.248 266.703 508.875 270.906 513.035 275.643C517.485 281.845 520.172 288.754 521.098 296.372C522.349 306.024 520.89 315.237 516.721 324.012C513.289 330.765 508.163 335.793 501.344 339.098C501.306 339.194 501.267 339.29 501.229 339.386C502.413 345.394 503.104 351.46 503.302 357.582C503.309 359.161 503.232 360.735 503.072 362.303C503.034 362.399 502.994 362.496 502.956 362.591C502.435 362.829 501.898 363.021 501.344 363.167C501.219 363.266 501.2 363.381 501.286 363.513C502.275 365.353 503.599 366.908 505.26 368.177C509.643 369.876 513.156 372.659 515.8 376.526C517.037 378.188 518.035 379.992 518.794 381.939C519.232 383.308 518.791 384.249 517.47 384.76C516.218 384.952 515.027 384.761 513.899 384.184C512.366 383.495 510.907 382.688 509.522 381.766C507.84 380.392 506.228 378.934 504.684 377.39C503.874 376.698 502.953 376.217 501.92 375.95C502.072 376.6 502.321 377.214 502.668 377.793C503.456 379.061 504.185 380.366 504.857 381.708C505.072 383.257 504.401 383.852 502.841 383.493C501.348 382.946 500.1 382.045 499.098 380.787C498.752 380.288 498.407 379.789 498.061 379.29C495.975 374.644 493.978 369.961 492.071 365.24C491.335 365.234 490.587 365.215 489.825 365.182C489.687 365.079 489.591 364.944 489.537 364.779C486.661 357.609 484.012 350.354 481.59 343.014C478.914 342.866 476.245 342.598 473.584 342.207C473.917 344.269 474.167 346.342 474.333 348.426C474.41 349.578 474.41 350.729 474.333 351.881C473.754 352.5 473.138 353.075 472.49 353.609C473.629 371.569 473.629 389.535 472.49 407.505C471.563 416.864 470.717 426.23 469.956 435.605C469.448 443.045 469.083 450.492 468.862 457.946C471.745 457.731 474.624 457.463 477.501 457.14C478.761 457.23 479.664 457.844 480.207 458.983C480.536 461.59 480.843 464.2 481.129 466.814C481.714 469.845 482.443 472.839 483.317 475.797C483.616 477.288 483.884 478.785 484.124 480.288C484.201 481.632 484.201 482.975 484.124 484.319C483.404 486.564 482.405 488.677 481.129 490.653C480.091 492.343 478.921 493.936 477.616 495.432C476.46 496.268 475.193 496.498 473.815 496.123C470.896 495.164 468.209 493.782 465.752 491.977C464.101 490.536 463.313 488.713 463.39 486.507C460.49 487.863 457.438 488.592 454.233 488.695C454.132 493.639 454.65 498.514 455.788 503.321C455.995 504.878 455.65 506.299 454.751 507.582C452.421 510.143 449.752 512.273 446.746 513.973C440.215 517.705 433.189 519.508 425.667 519.386C422.619 519.217 420.719 517.662 419.965 514.722C419.271 512.121 419.654 509.703 421.117 507.467C422.284 505.878 423.647 504.477 425.206 503.263C428.275 500.999 431.423 498.85 434.652 496.814C436.462 495.552 437.825 493.921 438.741 491.919C439.658 490.129 440.464 488.286 441.16 486.392C441.572 478.582 441.937 470.77 442.254 462.956C442.232 462.212 442.155 461.483 442.023 460.768C442.713 447.2 443.309 433.631 443.809 420.058C443.57 419.81 443.301 419.772 443.003 419.943C442.865 420.389 442.788 420.85 442.772 421.324C442.202 434.455 441.587 447.584 440.929 460.71C437.408 457.191 434.145 453.468 431.138 449.539C426.684 443.703 422.498 437.676 418.583 431.459C415.753 426.205 414.101 420.6 413.63 414.645C412.956 393.955 412.303 373.263 411.672 352.572C409.213 352.242 406.736 352.069 404.243 352.054C404.056 351.925 403.941 351.752 403.897 351.536C406.035 342.432 407.513 333.219 408.332 323.896C409.409 312.174 410.004 300.427 410.117 288.657Z" fill="#010101"/>
<path fill-rule="evenodd" clip-rule="evenodd" d="M372.106 226.814C371.993 226.493 371.955 226.147 371.991 225.777C372.124 221.127 372.355 216.483 372.682 211.843C377.199 210.27 379.138 211.844 378.499 216.564C377.416 220.653 375.285 224.07 372.106 226.814Z" fill="#FCFCFC"/>
<path fill-rule="evenodd" clip-rule="evenodd" d="M355.059 214.837C355.18 214.82 355.295 214.839 355.404 214.894C357.321 216.234 358.876 217.904 360.069 219.904C360.904 221.782 360.904 223.663 360.069 225.547C359.569 226.761 358.86 227.816 357.938 228.714C357.578 228.805 357.232 228.767 356.902 228.599C355.275 226.403 354.028 224.004 353.158 221.401C352.384 218.775 353.018 216.587 355.059 214.837Z" fill="#FDFDFD"/>
<path fill-rule="evenodd" clip-rule="evenodd" d="M449.626 219.904C452.859 219.758 456.045 220.064 459.186 220.825C458.706 222.597 458.436 224.4 458.38 226.238C458.336 228.6 458.969 230.749 460.28 232.687C461.41 234.126 462.889 234.874 464.715 234.933C465.23 235.29 465.403 235.77 465.233 236.372C465.006 237.384 464.526 238.247 463.793 238.964C463.251 239.323 462.657 239.496 462.008 239.482C461.169 239.367 460.344 239.233 459.532 239.079C458.38 239.942 457.113 240.595 455.73 241.037C455.552 241.176 455.417 241.349 455.327 241.555C453.798 246.775 454.642 251.573 457.861 255.95C458.199 257.456 457.603 258.359 456.076 258.656C450.639 259.589 445.418 258.898 440.411 256.584C439.001 255.94 437.714 255.114 436.552 254.108C436.044 253.104 436.217 252.241 437.07 251.516C440.254 249.931 442.309 247.417 443.233 243.973C443.31 243.244 443.31 242.514 443.233 241.785C442.871 240.962 442.333 240.271 441.62 239.712C441.12 238.558 440.91 237.349 440.987 236.085C441.195 231.312 442.52 226.878 444.961 222.783C445.615 221.706 446.518 220.919 447.667 220.422C448.322 220.192 448.974 220.019 449.626 219.904Z" fill="#FEFEFE"/>
<path fill-rule="evenodd" clip-rule="evenodd" d="M371.991 225.777C371.955 226.147 371.993 226.493 372.106 226.814C372.099 226.876 372.061 226.915 371.991 226.929C371.84 226.528 371.84 226.145 371.991 225.777Z" fill="#9B9B9B"/>
<path fill-rule="evenodd" clip-rule="evenodd" d="M363.006 233.148C365.425 233.071 367.844 232.995 370.263 232.917C370.923 232.853 371.364 232.507 371.588 231.881C371.665 231.113 371.741 230.346 371.818 229.578C372.587 230.905 372.991 232.325 373.027 233.839C370.964 234.707 368.911 235.589 366.865 236.487C365.803 235.099 364.518 233.985 363.006 233.148Z" fill="#FAFAFA"/>
<path fill-rule="evenodd" clip-rule="evenodd" d="M370.263 232.918C367.844 232.995 365.425 233.071 363.006 233.148C362.915 233.116 362.838 233.058 362.776 232.975C365.271 232.918 367.767 232.898 370.263 232.918Z" fill="#7E7E7E"/>
<path fill-rule="evenodd" clip-rule="evenodd" d="M374.41 234.415C374.747 234.506 374.959 234.736 375.043 235.106C378.06 242.982 381.516 250.658 385.41 258.138C386.697 260.483 388.156 262.709 389.787 264.818C391.941 267.309 394.302 267.521 396.871 265.451C399.092 263.251 401.107 260.891 402.918 258.368C404.357 256.7 405.874 255.107 407.468 253.589C410.769 250.75 414.608 249.176 418.986 248.868C422.672 248.747 426.358 248.707 430.044 248.752C432.459 248.991 434.839 249.413 437.186 250.019C437.339 250.096 437.339 250.172 437.186 250.249C435.222 251.204 434.704 252.682 435.631 254.683C436.435 255.563 437.376 256.274 438.453 256.814C444.516 260.057 450.89 260.902 457.574 259.347C459.205 258.17 459.512 256.711 458.495 254.971C462.232 256.013 465.649 257.703 468.747 260.038C473.318 263.726 477.101 268.082 480.092 273.109C482.34 276.951 484.182 280.982 485.621 285.201C486.427 288.272 487.234 291.343 488.04 294.415C491.552 305.62 494.777 316.906 497.716 328.273C499.449 335.137 500.755 342.085 501.632 349.117C502.134 353.367 502.269 357.628 502.035 361.9C498.313 362.859 494.55 363.628 490.747 364.203C490.639 364.191 490.542 364.153 490.459 364.088C489.095 360.863 487.828 357.6 486.658 354.299C479.967 334.998 473.459 315.631 467.134 296.2C466.866 295.969 466.596 295.969 466.328 296.2C463.193 299.76 461.216 303.888 460.396 308.58C459.908 312.654 460.484 316.57 462.123 320.326C464.166 323.713 466.163 327.129 468.113 330.576C471.61 337.036 473.338 343.946 473.296 351.305C470.103 354.313 466.398 356.482 462.181 357.812C455.739 359.797 449.173 360.334 442.484 359.424C435.224 358.435 428.236 356.477 421.521 353.551C416.205 351.845 410.753 350.982 405.164 350.96C407.422 340.63 408.977 330.188 409.829 319.635C410.781 307.831 411.241 296.007 411.211 284.165C411.002 283.854 410.714 283.757 410.348 283.877C406.961 288.146 402.969 291.716 398.368 294.587C396.053 295.954 393.558 296.703 390.881 296.833C388.996 296.954 387.383 296.359 386.044 295.048C384.532 293.345 383.247 291.482 382.185 289.463C379.684 284.424 377.534 279.242 375.734 273.916C371.819 262.172 368.421 250.291 365.541 238.273C368.504 236.983 371.46 235.696 374.41 234.415Z" fill="#F08262"/>
<path fill-rule="evenodd" clip-rule="evenodd" d="M336.168 253.071C336.402 253.053 336.632 253.071 336.859 253.129C337.467 253.751 338.063 254.384 338.645 255.029C338.779 255.662 338.529 255.912 337.896 255.777C337.3 255.182 336.706 254.588 336.11 253.992C335.867 253.662 335.887 253.354 336.168 253.071Z" fill="#070707"/>
<path fill-rule="evenodd" clip-rule="evenodd" d="M346.189 253.186C346.823 253.109 347.073 253.377 346.938 253.992C346.304 254.626 345.671 255.259 345.037 255.893C344.244 255.972 344.032 255.646 344.404 254.914C345.057 254.395 345.653 253.82 346.189 253.186Z" fill="#060606"/>
<path fill-rule="evenodd" clip-rule="evenodd" d="M305.414 454.837C303.225 454.914 301.037 454.99 298.848 455.067C298.704 455.077 298.609 455.153 298.56 455.298C298.467 465.356 298.485 475.414 298.618 485.47C298.618 485.701 298.618 485.931 298.618 486.161C242.983 486.161 187.349 486.161 131.714 486.161C127.409 485.632 124.126 483.52 121.866 479.827C121.052 478.307 120.515 476.695 120.253 474.991C117.757 424.933 115.262 374.876 112.766 324.818C112.671 323.741 112.69 322.667 112.824 321.593C114.078 322.286 115.383 322.882 116.74 323.378C117.685 323.27 118.606 323.385 119.505 323.724C122.516 324.249 125.549 324.556 128.604 324.645C140.907 340.931 156.765 352.333 176.176 358.848C200.051 366.167 223.358 364.67 246.093 354.357C268.906 343.258 285.089 325.964 294.644 302.476C299.816 288.967 301.927 274.994 300.979 260.557C303.186 259.377 305.337 258.111 307.43 256.756C308.807 282.434 310.074 308.116 311.231 333.8C302.737 350.818 299.589 368.784 301.785 387.697C302.365 392.049 303.209 396.349 304.32 400.595C305.505 404.626 306.752 408.637 308.063 412.63C308.043 412.687 308.025 412.745 308.005 412.802C303.778 408.528 298.806 405.399 293.089 403.417C289.281 402.288 285.48 401.136 281.686 399.962C279.405 399.432 278.061 400.314 277.654 402.61C277.668 403.597 278.051 404.404 278.806 405.029C281.11 406.794 283.413 408.561 285.717 410.326C292.766 416.382 296.24 424.078 296.141 433.417C296.533 437.74 297.762 441.809 299.827 445.624C301.72 448.679 303.582 451.749 305.414 454.837Z" fill="#FEFEFE"/>
<path fill-rule="evenodd" clip-rule="evenodd" d="M316.011 258.138C316.725 258.027 317.051 258.334 316.99 259.06C317.919 276.639 318.764 294.22 319.524 311.804C319.216 312.112 318.91 312.112 318.602 311.804C317.691 294.838 316.809 277.872 315.953 260.902C315.861 259.972 315.881 259.05 316.011 258.138Z" fill="#0B0B0B"/>
<path fill-rule="evenodd" clip-rule="evenodd" d="M299.654 261.132C301.295 288.859 292.674 312.851 273.795 333.109C269.641 337.439 265.129 341.316 260.261 344.741C259.905 343.53 259.752 342.303 259.8 341.056C262.93 339.289 264.254 336.602 263.774 332.994C263.593 331.933 263.324 330.897 262.968 329.885C261.47 326.43 259.973 322.975 258.476 319.52C255.702 312.451 254.244 305.12 254.099 297.524C253.987 290.421 254.678 283.396 256.172 276.449C256.751 273.861 257.385 271.29 258.072 268.733C271.255 270.07 283.926 268.132 296.084 262.917C297.316 262.377 298.507 261.783 299.654 261.132Z" fill="#FEFEFE"/>
<path fill-rule="evenodd" clip-rule="evenodd" d="M337.896 261.363C338.49 261.324 338.74 261.593 338.645 262.169C338.011 262.802 337.378 263.436 336.744 264.069C336.054 264.262 335.766 264.012 335.88 263.321C336.54 262.641 337.212 261.989 337.896 261.363Z" fill="#0F0F0F"/>
<path fill-rule="evenodd" clip-rule="evenodd" d="M344.346 261.478C344.58 261.46 344.81 261.478 345.037 261.536C345.674 262.134 346.27 262.768 346.823 263.436C346.958 264.069 346.708 264.319 346.074 264.184C345.479 263.589 344.884 262.995 344.289 262.399C344.046 262.069 344.065 261.761 344.346 261.478Z" fill="#0A0A0A"/>
<path fill-rule="evenodd" clip-rule="evenodd" d="M99.1169 264.702C99.1938 264.971 99.2705 265.24 99.3473 265.509C99.3147 265.6 99.2571 265.677 99.1745 265.739C99.1172 265.396 99.0979 265.05 99.1169 264.702Z" fill="#535353"/>
<path fill-rule="evenodd" clip-rule="evenodd" d="M177.904 272.188C179.391 272.075 180.83 272.268 182.223 272.764C182.774 276.518 183.253 280.279 183.663 284.05C182.194 284.456 180.735 284.897 179.286 285.374C178.998 285.662 178.71 285.95 178.422 286.238C176.23 283.486 174.943 280.357 174.563 276.852C174.428 274.369 175.542 272.815 177.904 272.188Z" fill="#FDFDFD"/>
<path fill-rule="evenodd" clip-rule="evenodd" d="M145.767 273.916C147.89 273.602 149.291 274.448 149.971 276.449C150.198 278.747 150.351 281.05 150.432 283.359C150.474 288.887 150.531 294.415 150.605 299.942C144.389 299.913 138.918 297.917 134.191 293.954C134.406 289.331 135.558 284.955 137.646 280.825C139.593 277.618 142.3 275.315 145.767 273.916Z" fill="#FDFDFD"/>
<path fill-rule="evenodd" clip-rule="evenodd" d="M194.721 281.286C196.216 281.036 197.54 281.382 198.694 282.322C199.364 283.099 199.652 284 199.558 285.029C199.535 287.179 198.902 289.117 197.658 290.844C197.154 291.393 196.598 291.872 195.988 292.284C194.605 293.052 193.223 293.819 191.841 294.587C190.59 295.416 189.458 296.395 188.443 297.524C185.979 300.487 183.388 303.347 180.668 306.104C179.241 307.393 177.628 308.392 175.83 309.098C174.777 309.401 173.703 309.555 172.605 309.558C168.483 313.08 163.875 315.844 158.783 317.85C146.977 322.717 134.73 324.444 122.039 323.033C119.99 322.723 117.974 322.282 115.991 321.708C117.637 313.311 120.978 305.672 126.013 298.791C128.636 295.846 131.804 295.059 135.515 296.43C141.087 300.015 147.192 301.55 153.83 301.036C159.37 300.597 164.784 299.522 170.071 297.812C173.34 294.045 176.565 290.244 179.746 286.411C182.588 285.489 185.429 284.568 188.27 283.647C190.362 282.662 192.512 281.876 194.721 281.286Z" fill="#FEFEFE"/>
<path fill-rule="evenodd" clip-rule="evenodd" d="M410.002 286.008C410.009 285.946 410.047 285.906 410.117 285.893C410.269 286.832 410.269 287.754 410.117 288.656C410.155 287.752 410.116 286.869 410.002 286.008Z" fill="#3F3F3F"/>
<path fill-rule="evenodd" clip-rule="evenodd" d="M336.629 302.706C338.146 302.591 338.819 303.282 338.645 304.779C336.21 310.892 333.753 316.996 331.273 323.09C323.094 345.549 324.361 367.468 335.074 388.848C340.02 400.567 342.016 412.775 341.064 425.47C339.911 435.306 338.701 445.134 337.435 454.952C334.248 454.952 331.062 454.952 327.875 454.952C324.02 444.828 320.084 434.733 316.068 424.664C314.429 421.039 312.356 417.699 309.848 414.645C308.003 408.995 306.275 403.313 304.665 397.601C299.872 376.383 302.061 355.923 311.231 336.219C315.058 328.329 319.858 321.112 325.629 314.568C329.089 310.84 332.505 307.079 335.88 303.282C336.107 303.046 336.356 302.854 336.629 302.706Z" fill="#75BF91"/>
<path fill-rule="evenodd" clip-rule="evenodd" d="M329.603 314.568C330.235 314.506 330.484 314.774 330.351 315.374C322.507 327.968 317.938 341.673 316.644 356.487C316.19 363.199 316.69 369.841 318.142 376.411C319.841 383.235 321.799 389.991 324.016 396.679C327.112 406.436 329.07 416.417 329.891 426.622C330.2 433.385 330.085 440.142 329.545 446.891C329.254 447.303 328.908 447.342 328.508 447.006C329.876 433.036 328.839 419.256 325.398 405.662C323.562 398.897 321.566 392.179 319.409 385.509C317.765 380.234 316.575 374.859 315.838 369.386C314.9 360.531 315.476 351.778 317.566 343.129C320.023 332.932 324.036 323.411 329.603 314.568Z" fill="#070707"/>
<path fill-rule="evenodd" clip-rule="evenodd" d="M419.101 320.326C419.394 320.28 419.644 320.357 419.85 320.557C424.657 330.437 429.495 340.303 434.363 350.154C434.421 350.71 434.171 350.96 433.615 350.902C428.676 341.044 423.78 331.159 418.929 321.248C418.826 320.902 418.884 320.596 419.101 320.326Z" fill="#070707"/>
<path fill-rule="evenodd" clip-rule="evenodd" d="M168.689 350.499C169.034 350.499 169.38 350.499 169.726 350.499C169.726 351.42 169.726 352.342 169.726 353.263C169.726 353.916 169.726 354.568 169.726 355.221C153.795 348.639 140.588 338.505 130.102 324.818C137.461 324.608 144.679 323.495 151.757 321.478C152.132 326.565 152.688 331.632 153.427 336.68C153.767 338.416 154.15 340.144 154.579 341.862C155.291 344.759 156.922 346.967 159.474 348.484C162.335 350.096 165.406 350.767 168.689 350.499Z" fill="#FDFDFD"/>
<path fill-rule="evenodd" clip-rule="evenodd" d="M416.913 330.461C417.337 330.372 417.625 330.525 417.777 330.921C419.082 334.069 420.388 337.217 421.693 340.365C421.77 341.017 421.482 341.266 420.829 341.113C419.467 337.871 418.104 334.627 416.74 331.382C416.638 331.036 416.695 330.73 416.913 330.461Z" fill="#080808"/>
<path fill-rule="evenodd" clip-rule="evenodd" d="M312.21 330C312.287 330.499 312.363 330.998 312.44 331.497C312.433 331.559 312.395 331.598 312.325 331.612C312.211 331.08 312.172 330.542 312.21 330Z" fill="#7E7E7E"/>
<path fill-rule="evenodd" clip-rule="evenodd" d="M168.689 350.499C169.048 350.386 169.433 350.348 169.841 350.384C169.879 351.365 169.839 352.324 169.725 353.263C169.725 352.342 169.725 351.42 169.725 350.499C169.38 350.499 169.034 350.499 168.689 350.499Z" fill="#989898"/>
<path fill-rule="evenodd" clip-rule="evenodd" d="M348.263 454.952C344.997 455.028 341.772 454.951 338.587 454.722C339.558 446.304 340.613 437.898 341.755 429.501C343.015 419.439 342.401 409.496 339.912 399.674C340.275 395.638 340.928 391.647 341.87 387.697C344.295 377.233 347.327 366.944 350.97 356.833C351.367 355.415 352.231 355.012 353.561 355.624C353.805 355.823 353.978 356.073 354.08 356.372C354.468 358.92 354.928 361.453 355.462 363.973C357.566 372.26 359.486 380.591 361.221 388.964C362.709 396.645 363.362 404.4 363.179 412.227C362.748 422.243 360.368 431.763 356.038 440.787C353.561 445.586 350.97 450.308 348.263 454.952Z" fill="#75BF91"/>
<path fill-rule="evenodd" clip-rule="evenodd" d="M499.616 363.512C499.805 363.488 499.978 363.526 500.134 363.628C501.613 366.987 504.09 369.272 507.564 370.48C509.731 371.646 511.631 373.162 513.266 375.029C514.959 377.03 516.379 379.218 517.527 381.593C517.72 382.017 517.855 382.458 517.931 382.917C517.711 383.575 517.25 383.863 516.548 383.781C515.659 383.683 514.815 383.433 514.014 383.033C512.614 382.352 511.271 381.585 509.983 380.729C508.25 379.112 506.485 377.539 504.684 376.008C503.698 375.244 502.584 374.899 501.344 374.971C500.818 375.264 500.645 375.705 500.826 376.296C501.108 377.09 501.453 377.858 501.862 378.599C502.573 379.714 503.226 380.865 503.82 382.054C503.877 382.202 503.896 382.357 503.878 382.514C503.013 382.488 502.245 382.2 501.574 381.651C500.624 380.931 499.836 380.067 499.213 379.059C497.028 374.405 495.012 369.683 493.166 364.894C495.358 364.556 497.508 364.095 499.616 363.512Z" fill="#FDFDFD"/>
<path fill-rule="evenodd" clip-rule="evenodd" d="M351.488 367.428C351.855 367.366 352.143 367.481 352.352 367.773C352.888 382.911 352.658 398.035 351.661 413.148C351.279 418.983 350.588 424.779 349.587 430.537C348.996 430.938 348.67 430.784 348.608 430.077C350.153 419.539 351.055 408.944 351.315 398.292C351.54 388.079 351.54 377.869 351.315 367.658C351.398 367.596 351.456 367.519 351.488 367.428Z" fill="#0C0C0C"/>
<path fill-rule="evenodd" clip-rule="evenodd" d="M306.681 373.417C307.011 373.369 307.26 373.484 307.429 373.762C309.063 379.676 311.482 385.243 314.686 390.461C315.332 391.452 316.023 392.413 316.759 393.34C316.953 394.048 316.703 394.316 316.011 394.146C312.705 389.763 310.113 384.964 308.236 379.751C307.545 377.849 306.911 375.929 306.335 373.992C306.403 373.771 306.518 373.579 306.681 373.417Z" fill="#070707"/>
<path fill-rule="evenodd" clip-rule="evenodd" d="M245.633 379.405C251.769 379.255 255.858 382.057 257.9 387.812C258.923 392.573 257.637 396.585 254.041 399.847C250.862 402.265 247.329 402.956 243.444 401.92C237.877 399.792 235.17 395.743 235.324 389.77C236.329 383.87 239.765 380.415 245.633 379.405Z" fill="#080808"/>
<path fill-rule="evenodd" clip-rule="evenodd" d="M182.972 380.557C188.92 380.256 193.048 382.828 195.354 388.272C196.708 393.12 195.574 397.284 191.956 400.768C188.092 403.722 183.906 404.258 179.401 402.38C174.147 399.339 172.132 394.829 173.354 388.848C174.956 384.192 178.162 381.428 182.972 380.557Z" fill="#070707"/>
<path fill-rule="evenodd" clip-rule="evenodd" d="M213.957 380.557C220.222 380.28 224.388 383.082 226.454 388.964C227.65 395.19 225.442 399.739 219.831 402.61C214.704 404.427 210.27 403.371 206.527 399.443C203.425 395.372 203.003 391.034 205.26 386.43C207.225 383.078 210.125 381.12 213.957 380.557Z" fill="#080808"/>
<path fill-rule="evenodd" clip-rule="evenodd" d="M244.941 380.557C250.512 380.067 254.408 382.37 256.633 387.466C258.003 392.568 256.564 396.656 252.313 399.731C248.23 401.954 244.276 401.763 240.449 399.155C237.209 396.425 235.922 392.952 236.59 388.733C237.807 384.388 240.591 381.662 244.941 380.557Z" fill="#FEFEFE"/>
<path fill-rule="evenodd" clip-rule="evenodd" d="M183.202 381.593C188.704 381.397 192.448 383.854 194.433 388.964C195.618 394.279 193.91 398.368 189.307 401.228C185.029 403.206 181.073 402.707 177.443 399.731C174.286 396.554 173.345 392.811 174.621 388.503C176.236 384.643 179.096 382.339 183.202 381.593Z" fill="#FEFEFE"/>
<path fill-rule="evenodd" clip-rule="evenodd" d="M214.072 381.593C219.248 381.381 222.914 383.607 225.072 388.273C226.611 393.409 225.247 397.573 220.983 400.768C216.206 403.389 211.809 402.871 207.794 399.213C204.977 395.993 204.248 392.347 205.606 388.273C207.246 384.545 210.068 382.319 214.072 381.593Z" fill="#FEFEFE"/>
<path fill-rule="evenodd" clip-rule="evenodd" d="M280.073 400.825C280.345 400.807 280.613 400.825 280.879 400.883C285.146 402.163 289.408 403.469 293.665 404.798C303.415 408.626 310.499 415.286 314.917 424.779C318.852 434.798 322.787 444.818 326.723 454.837C320.082 454.971 313.439 454.99 306.796 454.894C304.737 451.641 302.721 448.359 300.749 445.048C299.192 442.104 298.117 438.995 297.524 435.72C297.301 433.266 297.109 430.809 296.948 428.349C295.815 420.882 292.417 414.683 286.754 409.75C284.095 407.785 281.504 405.73 278.979 403.589C278.547 402.342 278.912 401.421 280.073 400.825Z" fill="#75BF91"/>
<path fill-rule="evenodd" clip-rule="evenodd" d="M287.675 405.662C288.273 405.712 288.811 405.922 289.288 406.296C302.045 414.798 309.897 426.602 312.843 441.708C313.359 444.682 313.59 447.676 313.534 450.691C313.135 451.027 312.789 450.988 312.498 450.576C311.992 432.858 304.64 418.79 290.44 408.368C289.549 407.747 288.628 407.171 287.675 406.641C287.376 406.315 287.376 405.989 287.675 405.662Z" fill="#080808"/>
<path fill-rule="evenodd" clip-rule="evenodd" d="M123.651 419.597C123.981 419.545 124.269 419.622 124.515 419.827C125.272 436.104 126.039 452.38 126.819 468.656C127.456 473.678 130.086 477.19 134.709 479.194C135.27 479.401 135.846 479.555 136.437 479.655C146.609 479.807 156.783 479.883 166.961 479.885C167.372 480.136 167.41 480.442 167.076 480.806C156.902 480.883 146.726 480.883 136.552 480.806C130.728 479.475 127.177 475.885 125.897 470.038C124.959 453.307 124.152 436.571 123.479 419.827C123.561 419.765 123.619 419.688 123.651 419.597Z" fill="#070707"/>
<path fill-rule="evenodd" clip-rule="evenodd" d="M305.414 454.837C305.476 454.844 305.515 454.882 305.529 454.952C303.304 455.067 301.076 455.105 298.848 455.067C301.037 454.99 303.225 454.914 305.414 454.837Z" fill="#404040"/>
<path fill-rule="evenodd" clip-rule="evenodd" d="M338.587 454.722C341.772 454.951 344.997 455.028 348.263 454.952C345.019 455.067 341.755 455.105 338.472 455.067C338.444 454.919 338.483 454.803 338.587 454.722Z" fill="#3F3F3F"/>
<path fill-rule="evenodd" clip-rule="evenodd" d="M349.645 454.837C351.872 454.914 354.099 454.99 356.326 455.067C354.059 455.105 351.794 455.067 349.53 454.952C349.544 454.882 349.583 454.844 349.645 454.837Z" fill="#3F3F3F"/>
<path fill-rule="evenodd" clip-rule="evenodd" d="M299.539 456.104C318.276 456.104 337.012 456.104 355.75 456.104C355.769 465.47 355.75 474.837 355.692 484.203C354.515 495.296 348.813 503.031 338.587 507.409C335.134 508.709 331.563 509.304 327.875 509.194C316.911 509.348 308.6 504.781 302.937 495.489C301.214 492.317 300.138 488.938 299.712 485.355C299.543 475.606 299.485 465.856 299.539 456.104Z" fill="#FEFEFE"/>
<path fill-rule="evenodd" clip-rule="evenodd" d="M476.809 458.292C477.897 458.096 478.683 458.48 479.171 459.443C479.47 462.449 479.855 465.443 480.322 468.426C481.184 471.754 481.99 475.094 482.741 478.445C483.096 480.157 483.211 481.884 483.087 483.628C482.896 484.624 482.588 485.583 482.165 486.507C480.704 489.502 478.879 492.247 476.694 494.741C475.54 495.463 474.427 495.425 473.354 494.626C475.159 492.074 476.714 489.367 478.019 486.507C478.838 484.35 479.106 482.124 478.825 479.827C477.656 472.703 476.6 465.563 475.657 458.407C476.065 458.443 476.45 458.405 476.809 458.292Z" fill="#FCFCFC"/>
<path fill-rule="evenodd" clip-rule="evenodd" d="M473.124 458.637C473.622 458.637 474.122 458.637 474.621 458.637C475.618 465.941 476.674 473.234 477.789 480.518C478.011 482.686 477.665 484.759 476.752 486.737C475.448 489.424 473.911 491.957 472.144 494.338C469.811 493.421 467.699 492.154 465.809 490.537C464.676 489.152 464.312 487.578 464.715 485.816C465.435 485.423 466.106 484.962 466.731 484.434C467.263 483.825 467.704 483.152 468.055 482.418C469.638 482.531 471.213 482.742 472.778 483.052C473.432 482.798 473.508 482.433 473.008 481.958C471.478 481.709 469.941 481.498 468.401 481.324C468.49 480.137 468.528 478.946 468.516 477.754C470.153 477.947 471.784 478.177 473.411 478.445C473.896 478.327 474.05 478.02 473.872 477.524C472.118 477.158 470.351 476.85 468.574 476.603C468.526 470.767 468.584 464.932 468.746 459.098C470.231 459.033 471.691 458.879 473.124 458.637Z" fill="#FDFDFD"/>
<path fill-rule="evenodd" clip-rule="evenodd" d="M304.262 464.626C319.85 464.606 335.439 464.626 351.027 464.683C351.346 465.025 351.307 465.332 350.912 465.605C335.4 465.682 319.889 465.682 304.377 465.605C304.119 465.306 304.081 464.98 304.262 464.626Z" fill="black"/>
<path fill-rule="evenodd" clip-rule="evenodd" d="M387.771 464.971C388.064 464.925 388.314 465.002 388.52 465.202C388.597 466.2 388.597 467.197 388.52 468.196C388.241 468.447 387.935 468.485 387.599 468.311C387.472 467.168 387.529 466.055 387.771 464.971Z" fill="#030303"/>
<path fill-rule="evenodd" clip-rule="evenodd" d="M392.379 471.996C393.377 471.977 394.376 471.996 395.373 472.054C395.71 472.453 395.671 472.799 395.258 473.09C394.299 473.167 393.338 473.167 392.379 473.09C392.078 472.726 392.078 472.361 392.379 471.996Z" fill="#101010"/>
<path fill-rule="evenodd" clip-rule="evenodd" d="M380.63 472.111C381.667 472.092 382.704 472.111 383.74 472.169C384.056 472.516 384.018 472.823 383.624 473.09C382.626 473.167 381.628 473.167 380.63 473.09C380.33 472.764 380.33 472.438 380.63 472.111Z" fill="#060606"/>
<path fill-rule="evenodd" clip-rule="evenodd" d="M387.771 476.718C388.064 476.672 388.314 476.749 388.52 476.948C388.597 477.947 388.597 478.944 388.52 479.942C388.241 480.193 387.935 480.231 387.598 480.057C387.521 479.021 387.521 477.985 387.598 476.948C387.681 476.886 387.739 476.809 387.771 476.718Z" fill="#020202"/>
<path fill-rule="evenodd" clip-rule="evenodd" d="M179.401 479.827C213.764 479.808 248.129 479.827 282.492 479.885C282.743 480.163 282.781 480.47 282.607 480.806C248.167 480.883 213.726 480.883 179.286 480.806C178.978 480.442 179.016 480.116 179.401 479.827Z" fill="black"/>
<path fill-rule="evenodd" clip-rule="evenodd" d="M298.618 485.47C298.73 485.713 298.768 485.982 298.733 486.276C243.041 486.314 187.368 486.276 131.714 486.161C187.349 486.161 242.983 486.161 298.618 486.161C298.618 485.931 298.618 485.701 298.618 485.47Z" fill="#BEBEBE"/>
<path fill-rule="evenodd" clip-rule="evenodd" d="M132.406 487.313C187.963 487.236 243.482 487.313 298.963 487.543C243.433 487.466 187.913 487.39 132.406 487.313Z" fill="#BEBEBE"/>
<path fill-rule="evenodd" clip-rule="evenodd" d="M442.023 487.198C445.668 488.247 449.393 488.784 453.196 488.81C453.12 492.443 453.331 496.051 453.83 499.635C444.895 509.131 433.914 513.852 420.887 513.8C420.491 511.713 420.874 509.793 422.039 508.042C424.185 505.417 426.699 503.228 429.583 501.478C431.047 503.344 432.89 504.707 435.112 505.566C436.037 505.767 436.268 505.459 435.803 504.645C433.993 503.961 432.4 502.944 431.023 501.593C430.85 501.343 430.678 501.094 430.505 500.845C431.426 500.231 432.348 499.616 433.269 499.002C433.414 498.889 433.568 498.85 433.73 498.887C435.624 500.679 437.851 501.868 440.411 502.457C440.95 502.639 441.295 502.466 441.447 501.939C441.444 501.762 441.367 501.628 441.217 501.536C439.519 501.149 437.907 500.535 436.379 499.693C435.755 499.299 435.197 498.819 434.709 498.253C434.63 498.158 434.649 498.081 434.767 498.023C435.898 497.341 436.896 496.497 437.761 495.49C440.038 497.49 442.687 498.719 445.709 499.175C446.378 499.068 446.532 498.741 446.17 498.196C443.746 497.785 441.519 496.903 439.489 495.547C439.144 495.202 438.798 494.856 438.453 494.511C439.904 492.203 441.095 489.766 442.023 487.198Z" fill="#FDFDFD"/>
<path fill-rule="evenodd" clip-rule="evenodd" d="M255.078 496.756C268.209 496.737 281.34 496.756 294.471 496.814C294.93 497.165 294.93 497.51 294.471 497.85C281.34 497.927 268.209 497.927 255.078 497.85C254.777 497.486 254.777 497.121 255.078 496.756Z" fill="#090909"/>
<path fill-rule="evenodd" clip-rule="evenodd" d="M454.003 501.017C454.25 501.432 454.423 501.893 454.521 502.399C454.743 503.476 454.743 504.551 454.521 505.624C454.341 506.174 454.073 506.673 453.715 507.121C449.365 511.552 444.202 514.68 438.222 516.507C434.679 517.526 431.07 518.159 427.395 518.407C425.895 518.49 424.475 518.202 423.133 517.543C422.187 516.963 421.572 516.137 421.29 515.067C432.57 514.901 442.476 511.198 451.008 503.954C452.064 503.032 453.063 502.053 454.003 501.017Z" fill="#FCFCFC"/>
</svg>
